<?xml version="1.0" encoding="UTF-8"?><svg xmlns="http://www.w3.org/2000/svg" viewBox="0 0 259.53 299.09"><g id="a"/><g id="b"><g id="c"><path d="M259.53,75.21L130.27,0,.51,74.34,0,223.88H0l129.26,75.21,129.76-74.34,.51-149.55h0Zm-2.83,147.97l-127.04,72.77L3.12,222.32h0l.5-146.4L130.65,3.14l126.54,73.63h0l-.5,146.4Z" style="fill:#074550;"/><g><path d="M35.3,216.36l-3.13-4.41c-.35,.04-.71,.06-1.1,.06h-3.68v4.35h-1.45v-13.71h5.13c3.49,0,5.6,1.76,5.6,4.7,0,2.16-1.14,3.66-3.13,4.31l3.35,4.7h-1.59Zm-.08-9.01c0-2.19-1.45-3.45-4.19-3.45h-3.64v6.88h3.64c2.74,0,4.19-1.27,4.19-3.43Z" style="fill:#1d8345;"/><path d="M41.51,202.64h1.45v13.71h-1.45v-13.71Z" style="fill:#1d8345;"/><path d="M60.09,202.64l-6.07,13.71h-1.43l-6.07-13.71h1.57l5.25,11.91,5.29-11.91h1.47Z" style="fill:#1d8345;"/><path d="M73.18,215.1v1.25h-9.7v-13.71h9.4v1.25h-7.95v4.88h7.09v1.23h-7.09v5.09h8.25Z" style="fill:#1d8345;"/><path d="M87.37,216.36l-3.13-4.41c-.35,.04-.71,.06-1.1,.06h-3.68v4.35h-1.45v-13.71h5.13c3.49,0,5.6,1.76,5.6,4.7,0,2.16-1.14,3.66-3.13,4.31l3.35,4.7h-1.59Zm-.08-9.01c0-2.19-1.45-3.45-4.19-3.45h-3.64v6.88h3.64c2.74,0,4.19-1.27,4.19-3.43Z" style="fill:#1d8345;"/><path d="M108.73,212.69h-7.64l-1.65,3.66h-1.51l6.27-13.71h1.43l6.27,13.71h-1.53l-1.65-3.66Zm-.53-1.18l-3.29-7.37-3.29,7.37h6.58Z" style="fill:#1d8345;"/><path d="M115.59,202.64h5.58c4.39,0,7.35,2.82,7.35,6.86s-2.96,6.86-7.35,6.86h-5.58v-13.71Zm5.51,12.46c3.64,0,6-2.31,6-5.6s-2.35-5.6-6-5.6h-4.06v11.21h4.06Z" style="fill:#1d8345;"/><path d="M144.17,202.64l-6.07,13.71h-1.43l-6.07-13.71h1.57l5.25,11.91,5.29-11.91h1.47Z" style="fill:#1d8345;"/><path d="M157.27,215.1v1.25h-9.7v-13.71h9.4v1.25h-7.95v4.88h7.09v1.23h-7.09v5.09h8.25Z" style="fill:#1d8345;"/><path d="M173.55,202.64v13.71h-1.19l-8.82-11.13v11.13h-1.45v-13.71h1.2l8.84,11.13v-11.13h1.43Z" style="fill:#1d8345;"/><path d="M182.1,203.89h-4.82v-1.25h11.09v1.25h-4.82v12.46h-1.45v-12.46Z" style="fill:#1d8345;"/><path d="M191.7,210.5v-7.86h1.45v7.8c0,3.25,1.53,4.74,4.19,4.74s4.21-1.49,4.21-4.74v-7.8h1.41v7.86c0,3.94-2.12,5.98-5.62,5.98s-5.64-2.04-5.64-5.98Z" style="fill:#1d8345;"/><path d="M218.11,216.36l-3.13-4.41c-.35,.04-.71,.06-1.1,.06h-3.68v4.35h-1.45v-13.71h5.13c3.49,0,5.6,1.76,5.6,4.7,0,2.16-1.14,3.66-3.13,4.31l3.35,4.7h-1.59Zm-.08-9.01c0-2.19-1.45-3.45-4.19-3.45h-3.64v6.88h3.64c2.74,0,4.19-1.27,4.19-3.43Z" style="fill:#1d8345;"/><path d="M234.02,215.1v1.25h-9.7v-13.71h9.4v1.25h-7.95v4.88h7.09v1.23h-7.09v5.09h8.25Z" style="fill:#1d8345;"/></g><g><path d="M11.52,158.9h14.68c6.07,0,10.92,4.49,10.92,10.19,0,3.4-1.4,5.52-3.94,7.46v.12c3.76,2.67,5.34,5.22,5.34,8.98,0,5.03-4,9.64-10.92,9.64H11.52v-36.39Zm16.07,34.69c5.52,0,8.67-3.82,8.67-7.95,0-3.15-1.7-6.31-5.88-8.67v-.49c3.4-2,4.49-4.49,4.49-7.4,0-4.73-3.88-8.49-8.67-8.49H13.76v33h13.83Zm-9.46-32.15h9.83l1.09,.3h-10.92v-.3Zm0,1.15h12.62l-.06-.06,.48,.36h-13.04v-.3Zm0,1.21h14.01l.24,.3h-14.25v-.3Zm0,1.15h6.49c3.4,0,5.76,2.18,5.76,5.03,0,3.03-2.37,5.09-5.76,5.09h-6.49v-10.13Zm0,10.86h12.19l-.42,.3h-11.77v-.3Zm0,1.21h11.46l.42,.3h-11.89v-.3Zm0,1.21h13.16l.3,.24h-13.47v-.24Zm0,1.03h7.64c3.4,0,5.64,2.24,5.64,4.91,0,2.97-2.24,4.85-5.64,4.85h-7.64v-9.77Zm0,10.92h15.89l-.3,.3h-15.59v-.3Zm0,1.21h14.62l-.42,.3h-14.19v-.3Zm0,1.21h12.01l-2.55,.3h-9.46v-.3Zm6.49-19.23c2.06,0,3.52-1.4,3.52-3.4,0-1.88-1.46-3.34-3.52-3.34h-4.25v6.73h4.25Zm1.15,13.95c2.06,0,3.4-1.21,3.4-3.15,0-1.76-1.33-3.21-3.4-3.21h-5.4v6.37h5.4Zm7.34-22.32l.12,.3h-4.85l-.67-.3h5.4Zm-4.43,9.58h3.28l-.36,.3h-3.28l.36-.3Zm.3,14.44h5.76l-.12,.24h-6.13l.48-.24Zm3.7-9.64l.3,.3h-3.34l-.49-.3h3.52Zm-3.21-13.16h4.19l.12,.3h-4l-.3-.3Zm.42,7.16h3.03l-.24,.3h-3.09l.3-.3Zm.42-5.94h3.76v.24h-3.64l-.12-.24Zm.3,20.38h4.67l-.12,.3h-4.85l.3-.3Zm0-15.59h2.97l-.18,.3h-2.97l.18-.3Zm3.15,8.37l.24,.3h-3.15l-.3-.3h3.21Zm-2.97-12.01h3.4v.3h-3.34l-.06-.3Zm.12,2.43h3.09l-.12,.3h-3.09l.12-.3Zm.06-1.21h3.21v.3h-3.21v-.3Zm.48,16.8h4.12l-.12,.3h-4.19l.18-.3Zm3.03-4.79l.18,.3h-3.09l-.18-.3h3.09Zm-2.61,3.58h3.76v.3h-3.82l.06-.3Zm0-2.37h3.21l.12,.3h-3.28l-.06-.3Zm.12,1.15h3.46v.3h-3.46v-.3Z" style="fill:#1d8345;"/><path d="M45.24,158.9h8.86v22.81c0,4.85,2.31,6.55,5.4,6.55,3.4,0,5.52-1.7,5.52-6.55v-22.81h8.92v24.14c0,8.61-6.43,13.46-14.44,13.46s-14.25-5.09-14.25-13.46v-24.14Zm14.25,35.91c6.73,0,12.19-4.25,12.19-11.77v-22.44h-4.43v21.11c0,6.13-2.97,8.25-7.76,8.25-4.37,0-7.64-2.12-7.64-8.25v-21.11h-4.37v22.44c0,7.34,5.03,11.77,12.01,11.77Zm-11.4-20.74h3.15v.3h-3.15v-.3Zm0,1.21h3.15v.3h-3.15v-.3Zm0,1.21h3.15v.3h-3.15v-.3Zm0,1.21h3.15v.3h-3.15v-.3Zm0,1.21h3.15v.3h-3.15v-.3Zm0,1.21h3.15v.3h-3.15v-.3Zm0,1.21h3.15v.3h-3.15v-.3Zm0,1.21h3.15l.06,.3h-3.21v-.3Zm0,1.21h3.21l.12,.3h-3.34v-.3Zm.12,1.21h3.34l.12,.3h-3.4l-.06-.3Zm.24,1.21h3.52l.12,.3h-3.58l-.06-.3Zm.36,1.21h3.7l.3,.3h-3.94l-.06-.3Zm.55,1.21h4.19l.36,.3h-4.37l-.18-.3Zm6,1.21l.73,.3h-5.76l-.24-.3h5.28Zm12.56,1.21l-.36,.3h-16.07l-.3-.3h16.74Zm-1.64,1.21l-.48,.3h-12.62l-.42-.3h13.53Zm-2.43,1.21l-1.15,.3h-6.49l-1.09-.3h8.73Zm0-3.64h5.09l-.24,.3h-5.64l.79-.3Zm1.76-1.21h4.06l-.12,.3h-4.25l.3-.3Zm.97-1.21h3.7l-.12,.3h-3.82l.24-.3Zm.55-1.21h3.58l-.12,.3h-3.58l.12-.3Zm.42-1.21h3.4l-.12,.3h-3.4l.12-.3Zm.18-1.21h3.34l-.06,.3h-3.34l.06-.3Zm.06-1.21h3.28v.3h-3.28v-.3Zm.06-8.49h3.21v.3h-3.21v-.3Zm0,1.21h3.21v.3h-3.21v-.3Zm0,1.21h3.21v.3h-3.21v-.3Zm0,1.21h3.21v.3h-3.21v-.3Zm0,1.21h3.21v.3h-3.21v-.3Zm0,1.21h3.21v.3h-3.21v-.3Zm0,1.21h3.21v.3h-3.21v-.3Z" style="fill:#1d8345;"/><path d="M82.18,158.9h23.47v7.88h-14.56v7.76h13.4v7.76h-13.4v12.98h-8.92v-36.39Zm6.67,34.69v-12.98h13.4v-4.37h-13.4v-11.16h14.56v-4.49h-18.98v33h4.43Zm-3.58-32.15h17.53v.3h-17.23l-.3-.3Zm1.21,1.21h16.32v.3h-16.01l-.3-.3Zm1.21,1.21h15.1v.3h-14.8l-.3-.3Zm1.15,13.16h12.8v.3h-12.8v-.3Zm0,1.21h12.8v.3h-12.8v-.3Zm0,1.21h12.8v.3h-12.8v-.3Z" style="fill:#1d8345;"/><path d="M111.78,158.9h23.47v7.88h-14.56v7.76h13.4v7.76h-13.4v12.98h-8.92v-36.39Zm6.67,34.69v-12.98h13.4v-4.37h-13.4v-11.16h14.56v-4.49h-18.98v33h4.43Zm-3.58-32.15h17.53v.3h-17.23l-.3-.3Zm1.21,1.21h16.32v.3h-16.01l-.3-.3Zm1.21,1.21h15.1v.3h-14.8l-.3-.3Zm1.15,13.16h12.8v.3h-12.8v-.3Zm0,1.21h12.8v.3h-12.8v-.3Zm0,1.21h12.8v.3h-12.8v-.3Z" style="fill:#1d8345;"/><path d="M153.51,157.68h1.58l17.83,37.61h-9.58l-1.82-3.76h-14.38l-1.76,3.76h-9.58l17.71-37.61Zm-9.77,35.91l10.19-21.96h.85l10.07,21.96h4.91l-15.47-32.63-15.35,32.63h4.79Zm-.79-7.22h3.34l-.18,.3h-3.34l.18-.3Zm.55-1.21h3.34l-.18,.3h-3.28l.12-.3Zm.61-1.21h3.28l-.18,.3h-3.28l.18-.3Zm.55-1.21h3.28l-.18,.3h-3.21l.12-.3Zm.61-1.21h3.27l-.18,.3h-3.28l.18-.3Zm.55-1.21h3.27l-.18,.3h-3.21l.12-.3Zm.55-1.21h3.27l-.18,.3h-3.21l.12-.3Zm.61-1.21h3.28l-.18,.3h-3.28l.18-.3Zm.55-1.21h3.28l-.18,.3h-3.21l.12-.3Zm13.28,13.22l-1.4-3.03h-10.25l-1.33,3.03h12.98Zm-12.68-14.44h3.28l-.18,.3h-3.28l.18-.3Zm.55-1.21h3.28l-.18,.3h-3.21l.12-.3Zm.61-1.21h3.28l-.18,.3h-3.28l.18-.3Zm0,15.77h9.83l.12,.3h-10.07l.12-.3Zm.55-16.98h3.28l-.18,.3h-3.21l.12-.3Zm0,15.77h8.79l.18,.3h-9.1l.12-.3Zm8.61-2.49l-4.12-9.16h-.12l-4.19,9.16h8.43Zm-8.01-14.5h7.7l.18,.3h-8.07l.18-.3Zm.55-1.21h6.61l.12,.3h-6.85l.12-.3Zm.55-1.21h5.46l.18,.3h-5.76l.12-.3Zm.61-1.21h4.31l.12,.3h-4.61l.18-.3Zm.55-1.21h3.15l.18,.3h-3.46l.12-.3Zm.61-1.21h2l.12,.3h-2.3l.18-.3Zm.55-1.21h.85l.18,.3h-1.15l.12-.3Zm.49-1.03l.12,.24h-.24l.12-.24Zm1.27,9.52h3.15l.12,.3h-3.09l-.18-.3Zm.55,1.21h3.15l.18,.3h-3.15l-.18-.3Zm.55,1.21h3.21l.12,.3h-3.15l-.18-.3Zm.55,1.21h3.21l.18,.3h-3.21l-.18-.3Zm.55,1.21h3.27l.12,.3h-3.21l-.18-.3Zm.55,1.21h3.27l.18,.3h-3.28l-.18-.3Zm.55,1.21h3.34l.12,.3h-3.28l-.18-.3Zm.55,1.21h3.34l.18,.3h-3.34l-.18-.3Zm3.94,1.21l.12,.3h-3.34l-.18-.3h3.4Zm.55,1.21l.18,.3h-3.46l-.18-.3h3.46Zm.61,1.21l.12,.3h-3.46l-.18-.3h3.52Zm.55,1.21l.18,.3h-3.52l-.18-.3h3.52Zm.61,1.21l.12,.3h-3.58l-.18-.3h3.64Z" style="fill:#1d8345;"/><path d="M179.22,158.9h8.92v28.75h15.83v7.64h-24.75v-36.39Zm22.5,34.69v-4.25h-15.83v-28.75h-4.43v33h20.26Zm-19.17-1.03h18.56v.3h-18.86l.3-.3Zm1.27-1.21h17.29v.3h-17.59l.3-.3Zm1.27-1.21h16.01v.3h-16.38l.36-.3Z" style="fill:#1d8345;"/><path d="M227.63,157.68c11.46,0,19.59,8.55,19.59,19.41s-8.13,19.41-19.59,19.41-19.59-8.55-19.59-19.41,8.07-19.41,19.59-19.41Zm0,37c10.07,0,17.35-7.7,17.35-17.59s-7.28-17.71-17.35-17.71-17.35,7.82-17.35,17.71,7.22,17.59,17.35,17.59Zm-16.68-18.92h3.28l-.06,.3h-3.28l.06-.3Zm-.06,1.21h3.28v.3h-3.28v-.3Zm0,1.21h3.28l.06,.3h-3.28l-.06-.3Zm.18-3.64h3.34l-.12,.3h-3.27l.06-.3Zm-.06,4.85h3.27l.12,.3h-3.34l-.06-.3Zm.24-6.07h3.4l-.12,.3h-3.34l.06-.3Zm-.06,7.28h3.34l.12,.3h-3.34l-.12-.3Zm.36-8.49h3.46l-.12,.3h-3.4l.06-.3Zm.36-1.21h3.64l-.18,.3h-3.52l.06-.3Zm.49-1.21h3.82l-.24,.3h-3.7l.12-.3Zm.61-1.21h4.12l-.24,.3h-4.06l.18-.3Zm.79-1.21h4.49l-.36,.3h-4.37l.24-.3Zm.85-1.21h5.09l-.42,.3h-4.91l.24-.3Zm12.98-1.64c7.76,0,12.86,5.58,12.86,12.68s-5.1,12.86-12.86,12.86-12.86-5.76-12.86-12.86,5.03-12.68,12.86-12.68Zm-11.83,.42h6.37l-.79,.3h-5.88l.3-.3Zm1.4-1.21h20.93l.3,.3h-8.37l-2.43-.18-2.24,.18h-8.67l.49-.3Zm10.43,24.44c6.43,0,10.55-4.85,10.55-10.98s-4.12-10.98-10.55-10.98-10.55,4.85-10.55,10.98,4.06,10.98,10.55,10.98Zm-8.67-25.66h17.35l.36,.3h-18.2l.49-.3Zm2.49-1.21h12.37l.79,.3h-13.95l.79-.3Zm6.19-1.15l3.21,.24h-6.19l2.97-.24Zm11.83,4.79l-.06-.06,.36,.36h-5.88l-.67-.3h6.25Zm1.03,1.21l.3,.3h-4.85l-.42-.3h4.97Zm.91,1.21l.24,.3h-4.31l-.36-.3h4.43Zm.73,1.21l.18,.3h-3.94l-.3-.3h4.06Zm-3.15,1.21h3.76l.12,.3h-3.7l-.18-.3Zm.67,1.21h3.58l.12,.3h-3.52l-.18-.3Zm.55,1.21h3.46l.12,.3h-3.4l-.18-.3Zm.36,1.21h3.4l.12,.3h-3.4l-.12-.3Zm.12,7.28h3.34l-.06,.3h-3.4l.12-.3Zm.18-6.07h3.34l.06,.3h-3.34l-.06-.3Zm.06,4.85h3.34l-.12,.3h-3.28l.06-.3Zm.12-1.21h3.28v.3h-3.34l.06-.3Zm0-2.43h3.28v.3h-3.28v-.3Zm.06,1.21h3.28v.3h-3.28v-.3Z" style="fill:#1d8345;"/></g><polygon points="130.19 227.68 17.51 227.68 129.61 291.75 242.01 227.68 130.19 227.68" style="fill:#1d8345;"/><path d="M252.79,77.46l-.13-.12L142.86,14.19h0l-12.94-7.44-13,7.46v-.14L6.4,77.46v77.71H252.79V77.46h0Zm-2.96,75.27H9.36V79.33L117.22,17.45v.14l12.68-7.28,12.63,7.27h0l107.16,61.63,.09,.07,.04,.04v73.4Z" style="fill:#1d8345;"/><circle cx="102.25" cy="90.82" r="33.79" style="fill:#ecab6d;"/><g><g><line x1="85.38" y1="133.4" x2="76.76" y2="152.77" style="fill:#ecab6d;"/><line x1="85.38" y1="133.4" x2="76.76" y2="152.77" style="fill:none; stroke:#ecab6d; stroke-dasharray:0 0 0 0 0 0 4 3 4 3 4 3; stroke-linecap:round; stroke-miterlimit:10;"/></g><g><line x1="71.42" y1="123.26" x2="55.67" y2="137.45" style="fill:#ecab6d;"/><line x1="71.42" y1="123.26" x2="55.67" y2="137.45" style="fill:none; stroke:#ecab6d; stroke-dasharray:0 0 0 0 0 0 4 3 4 3 4 3; stroke-linecap:round; stroke-miterlimit:10;"/></g><g><line x1="62.8" y1="108.33" x2="42.64" y2="114.88" style="fill:#ecab6d;"/><line x1="62.8" y1="108.33" x2="42.64" y2="114.88" style="fill:none; stroke:#ecab6d; stroke-dasharray:0 0 0 0 0 0 4 3 4 3 4 3; stroke-linecap:round; stroke-miterlimit:10;"/></g><path d="M61,92.1s-.07,0-.1,0l-7.36-.77c-.51-.05-.88-.51-.82-1.02,.05-.51,.5-.88,1.02-.82l7.36,.77c.51,.05,.88,.51,.82,1.02-.05,.48-.45,.83-.92,.83Zm-12.88-1.35s-.07,0-.1,0l-7.36-.77c-.51-.05-.88-.51-.82-1.02,.05-.51,.49-.88,1.02-.82l7.36,.77c.51,.05,.88,.51,.82,1.02-.05,.48-.45,.83-.92,.83Z" style="fill:#ecab6d;"/><path d="M66.33,75.7c-.16,0-.32-.04-.46-.12l-6.41-3.7c-.44-.26-.59-.82-.34-1.26,.25-.44,.82-.59,1.26-.34l6.41,3.7c.44,.26,.59,.82,.34,1.26-.17,.3-.48,.46-.8,.46Zm-11.22-6.48c-.16,0-.32-.04-.46-.12l-6.41-3.7c-.44-.26-.59-.82-.34-1.26,.25-.44,.82-.59,1.26-.34l6.41,3.7c.44,.26,.59,.82,.34,1.26-.17,.3-.48,.46-.8,.46Z" style="fill:#ecab6d;"/><g><path d="M67.45,46.04l-1.61,.93,3.67,5.06c.18,.25,.46,.38,.75,.38,.19,0,.38-.06,.54-.18,.41-.3,.5-.88,.2-1.29l-3.56-4.9Z" style="fill:#ecab6d;"/><path d="M78.62,61.41l-4.35-5.99c-.3-.41-.88-.5-1.29-.2-.41,.3-.5,.88-.2,1.29l4.35,5.99c.18,.25,.46,.38,.75,.38,.19,0,.38-.06,.54-.18,.41-.3,.5-.88,.2-1.29Z" style="fill:#ecab6d;"/></g><path d="M93.62,55.86c-.43,0-.81-.3-.9-.73l-1.54-7.24c-.11-.5,.21-.99,.71-1.1,.48-.1,.99,.21,1.1,.71l1.54,7.24c.11,.5-.21,.99-.71,1.1-.07,.01-.13,.02-.2,.02Zm-2.69-12.67c-.43,0-.81-.3-.9-.73l-1.54-7.24c-.11-.5,.21-.99,.71-1.1,.49-.1,.99,.21,1.1,.71l1.54,7.24c.11,.5-.21,.99-.71,1.1-.06,.01-.13,.02-.19,.02Z" style="fill:#ecab6d;"/><path d="M110.87,55.86c-.07,0-.13,0-.2-.02-.5-.11-.82-.6-.71-1.1l1.54-7.24c.11-.5,.62-.82,1.1-.71,.5,.11,.82,.6,.71,1.1l-1.54,7.24c-.09,.43-.48,.73-.9,.73Zm2.69-12.67c-.07,0-.13,0-.19-.02-.5-.11-.82-.6-.71-1.1l1.54-7.24c.11-.5,.61-.82,1.1-.71,.5,.11,.82,.6,.71,1.1l-1.54,7.24c-.09,.43-.48,.73-.9,.73Z" style="fill:#ecab6d;"/><path d="M126.63,62.88c-.19,0-.38-.06-.54-.18-.41-.3-.5-.88-.2-1.29l4.35-5.99c.3-.41,.88-.5,1.29-.2,.41,.3,.5,.88,.2,1.29l-4.35,5.99c-.18,.25-.46,.38-.75,.38Zm7.61-10.48c-.19,0-.38-.06-.54-.18-.41-.3-.5-.88-.2-1.29l4.35-5.99c.3-.41,.88-.5,1.29-.2,.41,.3,.5,.88,.2,1.29l-4.35,5.99c-.18,.25-.46,.38-.75,.38Z" style="fill:#ecab6d;"/><path d="M138.17,75.7c-.32,0-.63-.17-.8-.46-.26-.44-.1-1.01,.34-1.26l6.41-3.7c.44-.26,1.01-.11,1.26,.34,.26,.44,.1,1.01-.34,1.26l-6.41,3.7c-.15,.08-.31,.12-.46,.12Zm11.22-6.48c-.32,0-.63-.17-.8-.46-.26-.44-.1-1.01,.34-1.26l6.41-3.7c.44-.25,1.01-.11,1.26,.34,.26,.44,.1,1.01-.34,1.26l-6.41,3.7c-.15,.08-.31,.12-.46,.12Z" style="fill:#ecab6d;"/><path d="M143.5,92.1c-.47,0-.87-.35-.92-.83-.05-.51,.31-.96,.82-1.02l7.36-.77c.49-.05,.96,.31,1.02,.82,.05,.51-.31,.96-.82,1.02l-7.36,.77s-.07,0-.1,0Zm12.88-1.35c-.47,0-.87-.35-.92-.83-.05-.51,.31-.96,.82-1.02l7.36-.77c.52-.06,.96,.31,1.02,.82,.05,.51-.31,.96-.82,1.02l-7.36,.77s-.07,0-.1,0Z" style="fill:#ecab6d;"/><g><line x1="141.7" y1="108.33" x2="161.86" y2="114.88" style="fill:#ecab6d;"/><line x1="141.7" y1="108.33" x2="161.86" y2="114.88" style="fill:none; stroke:#ecab6d; stroke-dasharray:0 0 0 0 0 0 4 3 4 3 4 3; stroke-linecap:round; stroke-miterlimit:10;"/></g><g><line x1="133.07" y1="123.26" x2="148.83" y2="137.45" style="fill:#ecab6d;"/><line x1="133.07" y1="123.26" x2="148.83" y2="137.45" style="fill:none; stroke:#ecab6d; stroke-dasharray:0 0 0 0 0 0 4 3 4 3 4 3; stroke-linecap:round; stroke-miterlimit:10;"/></g><g><line x1="119.12" y1="133.4" x2="127.74" y2="152.77" style="fill:#ecab6d;"/><line x1="119.12" y1="133.4" x2="127.74" y2="152.77" style="fill:none; stroke:#ecab6d; stroke-dasharray:0 0 0 0 0 0 4 3 4 3 4 3; stroke-linecap:round; stroke-miterlimit:10;"/></g></g><g><path d="M44.1,227.68s38.09-.31,75.37,18.28c29.95,14.94,2.48,16.75-5.49,22.88-7.97,6.13-5.25,9.9-4,11.48l.06,.2,19.58,11.23,22.31-12.71s-8.91-2.39-8.91-6.56,12.18-6.62,8.76-16.78c-2.1-6.24-12.53-13.54-35.25-19.63-12.38-3.32-31.59-5.72-31.04-8.38H44.1Z" style="fill:#00bdd1;"/><polygon points="252.79 153.98 252.64 150.7 251.03 129.05 236.9 115.99 230.28 127.44 197.01 97.21 183.41 108.3 176.25 102.93 166.19 113.14 147.72 94.34 136.8 103.63 122.28 84.46 97.54 116.25 84.41 102.93 77.25 108.3 63.66 97.21 30.38 127.44 23.77 115.99 8.43 129.14 8.02 150.7 7.87 153.98 130.33 153.22 252.79 153.98" style="fill:#058548;"/><polygon points="98.75 117.48 122.38 86.41 126.87 100.8 121 96.02 120.43 110.83 112.62 105.18 112.19 119.22 100.04 123.79 98.75 117.48" style="fill:#65c192;"/><polygon points="167.55 114.05 176.68 104.78 179.23 111.11 176.03 108.43 176.7 115.75 172.15 112.68 175.65 121.51 169.54 118.54 167.55 114.05" style="fill:#65c192;"/><polygon points="147.75 95.51 151.46 104.82 146.01 101.87 147.37 110.17 142.91 106.43 143.76 111.6 145.08 114.05 139.69 107.97 137.29 105.1 147.75 95.51" style="fill:#65c192;"/><polygon points="231.72 127.86 237.22 118.14 245.38 126.33 238.78 122.1 242.9 128.97 236.34 125.94 240.66 134.83 231.72 127.86" style="fill:#66bb8f;"/><polygon points="28.84 128.01 23.35 118.28 15.19 126.47 21.78 122.24 17.66 129.11 24.22 126.09 19.9 134.97 28.84 128.01" style="fill:#66bb8f;"/><polygon points="205.76 107.45 195.92 104.42 196.92 111.76 192.16 109.49 193.7 115.75 185.83 108.91 196.95 99.4 205.76 107.45" style="fill:#66bb8f;"/><polygon points="93.45 114.05 84.32 104.78 81.78 111.11 84.97 108.43 84.3 115.75 88.86 112.68 85.35 121.51 91.46 118.54 93.45 114.05" style="fill:#65c192;"/><polygon points="55.24 107.45 65.08 104.42 64.08 111.76 68.85 109.49 67.3 115.75 75.17 108.91 64.05 99.4 55.24 107.45" style="fill:#66bb8f;"/></g></g></g></svg>